<?xml version="1.0" encoding="utf-8"?>
<!-- Generator: Adobe Illustrator 17.0.0, SVG Export Plug-In . SVG Version: 6.00 Build 0)  -->
<!DOCTYPE svg PUBLIC "-//W3C//DTD SVG 1.1//EN" "http://www.w3.org/Graphics/SVG/1.1/DTD/svg11.dtd">
<svg xmlns="http://www.w3.org/2000/svg" xmlns:xlink="http://www.w3.org/1999/xlink" version="1.1" id="Layer_1" x="0px" y="0px" width="204px" height="32.483px" viewBox="0 0 204 32.483" xml:space="preserve">
<g>
	<g>
		<path fill="#66CCFF" d="M45.826,10.135h2.233l9.761,21.402h-2.562l-2.621-5.883H41.155l-2.635,5.883h-2.435L45.826,10.135z     M51.702,23.52L46.91,12.883L42.09,23.52H51.702z"/>
		<path fill="#66CCFF" d="M60.745,22.405V10.135h2.379v12.117c0,4.546,2.41,7.111,6.45,7.111c3.882,0,6.354-2.354,6.354-6.959    V10.135h2.385v12.086c0,6.145-3.533,9.315-8.801,9.315C64.301,31.537,60.745,28.367,60.745,22.405"/>
		<path fill="#66CCFF" d="M83.014,20.744v-0.059c0-5.786,4.243-10.907,10.572-10.907c3.556,0,5.758,1.022,7.863,2.801l-1.54,1.81    c-1.624-1.416-3.432-2.413-6.416-2.413c-4.665,0-8.013,3.944-8.013,8.646v0.062c0,5.034,3.224,8.772,8.345,8.772    c2.41,0,4.643-0.938,6.084-2.117v-5.236h-6.416v-2.142h8.708v8.406c-1.957,1.751-4.91,3.17-8.463,3.17    C87.105,31.537,83.014,26.768,83.014,20.744"/>
		<polygon fill="#005596" points="107.567,10.135 109.975,10.135 117.661,21.65 125.341,10.135 127.757,10.135 127.757,31.537     125.375,31.537 125.375,14.147 117.689,25.443 117.568,25.443 109.884,14.175 109.884,31.537 107.567,31.537   "/>
		<polygon fill="#005596" points="133.719,10.135 148.962,10.135 148.962,12.309 136.101,12.309 136.101,19.612 147.608,19.612     147.608,21.785 136.101,21.785 136.101,29.372 149.114,29.372 149.114,31.537 133.719,31.537   "/>
		<path fill="#005596" d="M153.906,10.135h7.32c6.625,0,11.211,4.552,11.211,10.487v0.062c0,5.934-4.586,10.853-11.211,10.853h-7.32    V10.135z M161.226,29.032c5.335,0,8.733-3.617,8.733-8.288v-0.059c0-4.671-3.398-8.348-8.733-8.348h-4.944v16.695H161.226z"/>
		<rect x="177.679" y="10.135" fill="#005596" width="2.382" height="21.402"/>
		<polygon fill="#005596" points="192.744,20.476 184.94,10.135 187.741,10.135 194.222,18.756 200.633,10.135 203.409,10.135     195.607,20.445 204,31.537 201.168,31.537 194.132,22.16 187.133,31.537 184.391,31.537   "/>
	</g>
	<g>
		<polygon fill="#FFFFFF" points="32.481,8.978 23.503,8.978 23.503,0 8.978,0 8.978,8.978 0,8.978 0,23.508 8.978,23.508     8.978,32.483 23.503,32.483 23.503,23.508 32.481,23.508   "/>
		<path fill="#005596" d="M16.27,17.748c0.836,0,1.512-0.676,1.512-1.512c0-0.839-0.676-1.515-1.512-1.515    c-0.833,0-1.515,0.676-1.515,1.515C14.755,17.073,15.437,17.748,16.27,17.748z"/>
		<path fill="#005596" d="M22.441,8.418V0.946H10.034v9.091H0.949V22.45h13.266c4.423,0,8.227-2.162,8.227-8.635    c-0.8,3.151-2.79,6.464-7.39,6.464L3.114,20.282v-8.08h6.914c0,0,0.752-1.32,2.171-2.165v-6.92h8.08v5.301H22.441z"/>
		<path fill="#66CCFF" d="M18.269,10.034c-4.426,0-8.232,2.165-8.232,8.635c0.802-3.15,2.793-6.467,7.393-6.467h11.934v8.08h-6.912    c0,0-0.755,1.321-2.174,2.168v6.92h-8.08v-5.303h-2.165v7.471h12.413V22.45h9.085V10.034H18.269z"/>
	</g>
</g>
</svg>
